<mxfile host="65bd71144e">
    <diagram id="iECSN86aFS-XDSPFpjlw" name="Page-1">
        <mxGraphModel dx="423" dy="464" grid="1" gridSize="10" guides="1" tooltips="1" connect="1" arrows="1" fold="1" page="1" pageScale="1" pageWidth="850" pageHeight="1100" math="0" shadow="0">
            <root>
                <mxCell id="0"/>
                <mxCell id="1" parent="0"/>
                <mxCell id="5" value="" style="rounded=0;whiteSpace=wrap;html=1;" vertex="1" parent="1">
                    <mxGeometry width="850" height="490" as="geometry"/>
                </mxCell>
                <mxCell id="6" value="" style="rounded=0;whiteSpace=wrap;html=1;fillColor=#a20025;strokeColor=#6F0000;fontColor=#ffffff;" vertex="1" parent="1">
                    <mxGeometry width="850" height="60" as="geometry"/>
                </mxCell>
                <mxCell id="7" value="&lt;b&gt;&lt;font style=&quot;font-size: 15px&quot; color=&quot;#ffffff&quot;&gt;Where's Wally?&lt;/font&gt;&lt;/b&gt;" style="text;html=1;strokeColor=none;fillColor=none;align=center;verticalAlign=middle;whiteSpace=wrap;rounded=0;" vertex="1" parent="1">
                    <mxGeometry x="70" y="15" width="130" height="30" as="geometry"/>
                </mxCell>
                <mxCell id="9" value="" style="ellipse;whiteSpace=wrap;html=1;aspect=fixed;fillColor=#FFFFFF;fontColor=#ffffff;strokeColor=#6F0000;" vertex="1" parent="1">
                    <mxGeometry x="30" y="15" width="30" height="30" as="geometry"/>
                </mxCell>
                <mxCell id="11" value="&lt;font style=&quot;font-size: 14px&quot; color=&quot;#ffffff&quot;&gt;See high scores&lt;/font&gt;" style="text;html=1;strokeColor=none;fillColor=none;align=center;verticalAlign=middle;whiteSpace=wrap;rounded=0;" vertex="1" parent="1">
                    <mxGeometry x="690" y="15" width="130" height="30" as="geometry"/>
                </mxCell>
                <object label="" hedietLinkedDataV1_path="" id="12">
                    <mxCell style="rounded=0;whiteSpace=wrap;html=1;fontSize=14;fillColor=#FFFFFF;" vertex="1" parent="1">
                        <mxGeometry y="60" width="850" height="430" as="geometry"/>
                    </mxCell>
                </object>
                <mxCell id="13" value="" style="rounded=0;whiteSpace=wrap;html=1;" vertex="1" parent="1">
                    <mxGeometry y="510" width="850" height="490" as="geometry"/>
                </mxCell>
                <mxCell id="14" value="&lt;h1&gt;&lt;font color=&quot;#000000&quot;&gt;It's all about finding the characters!&lt;/font&gt;&lt;/h1&gt;&lt;p&gt;&lt;font color=&quot;#000000&quot;&gt;After you select a level, click on the screen and choose a character. If you are right about their location, a marker will be placed there. You win when you find all the characters!&lt;/font&gt;&lt;/p&gt;&lt;p&gt;&lt;font color=&quot;#000000&quot;&gt;If you qualify, your score will be recorded in the high scores table.&lt;/font&gt;&lt;/p&gt;" style="text;html=1;strokeColor=none;fillColor=none;spacing=5;spacingTop=-20;whiteSpace=wrap;overflow=hidden;rounded=0;fontSize=14;fontColor=#FFFFFF;" vertex="1" parent="1">
                    <mxGeometry x="140" y="110" width="190" height="320" as="geometry"/>
                </mxCell>
                <mxCell id="15" value="" style="rounded=1;whiteSpace=wrap;html=1;fontSize=14;fontColor=#000000;fillColor=#CCCCCC;" vertex="1" parent="1">
                    <mxGeometry x="425" y="160" width="285" height="90" as="geometry"/>
                </mxCell>
                <mxCell id="16" value="" style="rounded=1;whiteSpace=wrap;html=1;fontSize=14;fontColor=#000000;fillColor=#CCCCCC;" vertex="1" parent="1">
                    <mxGeometry x="425" y="270" width="285" height="90" as="geometry"/>
                </mxCell>
                <mxCell id="17" value="" style="rounded=1;whiteSpace=wrap;html=1;fontSize=14;fontColor=#000000;fillColor=#CCCCCC;glass=0;sketch=0;shadow=0;" vertex="1" parent="1">
                    <mxGeometry x="425" y="380" width="285" height="90" as="geometry"/>
                </mxCell>
                <mxCell id="18" value="&lt;b&gt;&lt;font style=&quot;font-size: 35px&quot; color=&quot;#333333&quot;&gt;Beach&lt;/font&gt;&lt;/b&gt;" style="text;html=1;strokeColor=none;fillColor=none;align=center;verticalAlign=middle;whiteSpace=wrap;rounded=0;fontSize=14;fontColor=#000000;" vertex="1" parent="1">
                    <mxGeometry x="452.5" y="190" width="230" height="30" as="geometry"/>
                </mxCell>
                <mxCell id="20" value="&lt;b&gt;&lt;font style=&quot;font-size: 35px&quot; color=&quot;#333333&quot;&gt;Space&lt;/font&gt;&lt;/b&gt;" style="text;html=1;strokeColor=none;fillColor=none;align=center;verticalAlign=middle;whiteSpace=wrap;rounded=0;fontSize=14;fontColor=#000000;" vertex="1" parent="1">
                    <mxGeometry x="452.5" y="300" width="230" height="30" as="geometry"/>
                </mxCell>
                <mxCell id="21" value="&lt;b&gt;&lt;font style=&quot;font-size: 35px&quot; color=&quot;#333333&quot;&gt;Stadium&lt;/font&gt;&lt;/b&gt;" style="text;html=1;strokeColor=none;fillColor=none;align=center;verticalAlign=middle;whiteSpace=wrap;rounded=0;fontSize=14;fontColor=#000000;" vertex="1" parent="1">
                    <mxGeometry x="452.5" y="410" width="230" height="30" as="geometry"/>
                </mxCell>
                <mxCell id="27" value="" style="rounded=0;whiteSpace=wrap;html=1;labelBackgroundColor=#990000;fontSize=22;fontColor=#990000;fillColor=#990000;" vertex="1" parent="1">
                    <mxGeometry x="425" y="110" width="165" height="30" as="geometry"/>
                </mxCell>
                <mxCell id="26" value="&lt;font style=&quot;font-size: 20px&quot; color=&quot;#ffffff&quot;&gt;Select a level&lt;/font&gt;" style="text;html=1;strokeColor=none;fillColor=none;align=left;verticalAlign=middle;whiteSpace=wrap;rounded=0;fontSize=35;fontColor=#333333;" vertex="1" parent="1">
                    <mxGeometry x="448" y="105" width="135" height="30" as="geometry"/>
                </mxCell>
                <mxCell id="30" value="" style="rounded=0;whiteSpace=wrap;html=1;fillColor=#a20025;strokeColor=#6F0000;fontColor=#ffffff;" vertex="1" parent="1">
                    <mxGeometry y="510" width="850" height="60" as="geometry"/>
                </mxCell>
                <mxCell id="31" value="&lt;b&gt;&lt;font style=&quot;font-size: 15px&quot; color=&quot;#ffffff&quot;&gt;Where's Wally?&lt;/font&gt;&lt;/b&gt;" style="text;html=1;strokeColor=none;fillColor=none;align=center;verticalAlign=middle;whiteSpace=wrap;rounded=0;" vertex="1" parent="1">
                    <mxGeometry x="70" y="525" width="130" height="30" as="geometry"/>
                </mxCell>
                <mxCell id="32" value="" style="ellipse;whiteSpace=wrap;html=1;aspect=fixed;fillColor=#FFFFFF;fontColor=#ffffff;strokeColor=#6F0000;" vertex="1" parent="1">
                    <mxGeometry x="30" y="525" width="30" height="30" as="geometry"/>
                </mxCell>
                <mxCell id="33" value="&lt;font style=&quot;font-size: 14px&quot; color=&quot;#ffffff&quot;&gt;See high scores&lt;/font&gt;" style="text;html=1;strokeColor=none;fillColor=none;align=center;verticalAlign=middle;whiteSpace=wrap;rounded=0;" vertex="1" parent="1">
                    <mxGeometry x="690" y="525" width="130" height="30" as="geometry"/>
                </mxCell>
                <mxCell id="34" value="" style="rounded=0;whiteSpace=wrap;html=1;shadow=0;glass=0;labelBackgroundColor=#990000;sketch=0;fontSize=20;fontColor=#FFFFFF;fillColor=#E6E6E6;gradientColor=#ffffff;" vertex="1" parent="1">
                    <mxGeometry y="570" width="850" height="430" as="geometry"/>
                </mxCell>
                <mxCell id="35" value="" style="rounded=1;whiteSpace=wrap;html=1;shadow=0;glass=0;labelBackgroundColor=#990000;sketch=0;fontSize=20;fontColor=#FFFFFF;strokeColor=#E6E6E6;fillColor=#990000;gradientColor=none;" vertex="1" parent="1">
                    <mxGeometry x="790" y="580" width="50" height="130" as="geometry"/>
                </mxCell>
                <mxCell id="36" value="" style="ellipse;whiteSpace=wrap;html=1;aspect=fixed;fillColor=#FFFFFF;fontColor=#ffffff;strokeColor=#6F0000;" vertex="1" parent="1">
                    <mxGeometry x="800" y="590" width="30" height="30" as="geometry"/>
                </mxCell>
                <mxCell id="37" value="" style="ellipse;whiteSpace=wrap;html=1;aspect=fixed;fillColor=#FFFFFF;fontColor=#ffffff;strokeColor=#6F0000;" vertex="1" parent="1">
                    <mxGeometry x="800" y="630" width="30" height="30" as="geometry"/>
                </mxCell>
                <mxCell id="38" value="" style="ellipse;whiteSpace=wrap;html=1;aspect=fixed;fillColor=#FFFFFF;fontColor=#ffffff;strokeColor=#6F0000;" vertex="1" parent="1">
                    <mxGeometry x="800" y="670" width="30" height="30" as="geometry"/>
                </mxCell>
                <mxCell id="39" value="" style="rounded=1;whiteSpace=wrap;html=1;shadow=0;glass=0;labelBackgroundColor=#990000;sketch=0;fontSize=20;fontColor=#FFFFFF;strokeColor=#E6E6E6;fillColor=#990000;gradientColor=none;" vertex="1" parent="1">
                    <mxGeometry x="710" y="750" width="130" height="130" as="geometry"/>
                </mxCell>
                <mxCell id="40" value="" style="ellipse;whiteSpace=wrap;html=1;aspect=fixed;fillColor=#FFFFFF;fontColor=#ffffff;strokeColor=#6F0000;" vertex="1" parent="1">
                    <mxGeometry x="800" y="760" width="30" height="30" as="geometry"/>
                </mxCell>
                <mxCell id="41" value="" style="ellipse;whiteSpace=wrap;html=1;aspect=fixed;fillColor=#FFFFFF;fontColor=#ffffff;strokeColor=#6F0000;" vertex="1" parent="1">
                    <mxGeometry x="800" y="800" width="30" height="30" as="geometry"/>
                </mxCell>
                <mxCell id="42" value="" style="ellipse;whiteSpace=wrap;html=1;aspect=fixed;fillColor=#FFFFFF;fontColor=#ffffff;strokeColor=#6F0000;" vertex="1" parent="1">
                    <mxGeometry x="800" y="840" width="30" height="30" as="geometry"/>
                </mxCell>
                <mxCell id="44" value="[Level image]" style="text;html=1;strokeColor=none;fillColor=none;align=center;verticalAlign=middle;whiteSpace=wrap;rounded=0;shadow=0;glass=0;labelBackgroundColor=#990000;sketch=0;fontSize=20;fontColor=#FFFFFF;" vertex="1" parent="1">
                    <mxGeometry x="358" y="740" width="135" height="30" as="geometry"/>
                </mxCell>
                <mxCell id="45" value="[Default] -&amp;gt;" style="text;html=1;strokeColor=none;fillColor=none;align=center;verticalAlign=middle;whiteSpace=wrap;rounded=0;shadow=0;glass=0;labelBackgroundColor=#990000;sketch=0;fontSize=20;fontColor=#FFFFFF;" vertex="1" parent="1">
                    <mxGeometry x="650" y="630" width="120" height="30" as="geometry"/>
                </mxCell>
                <mxCell id="46" value="[On hover] -&amp;gt;" style="text;html=1;strokeColor=none;fillColor=none;align=center;verticalAlign=middle;whiteSpace=wrap;rounded=0;shadow=0;glass=0;labelBackgroundColor=#990000;sketch=0;fontSize=20;fontColor=#FFFFFF;" vertex="1" parent="1">
                    <mxGeometry x="540" y="800" width="140" height="30" as="geometry"/>
                </mxCell>
                <mxCell id="47" value="&lt;font color=&quot;#ffffff&quot; style=&quot;font-size: 12px&quot;&gt;Wally&lt;/font&gt;" style="text;html=1;strokeColor=none;fillColor=none;align=right;verticalAlign=middle;whiteSpace=wrap;rounded=0;shadow=0;glass=0;labelBackgroundColor=none;sketch=0;fontSize=10;fontColor=none;" vertex="1" parent="1">
                    <mxGeometry x="720" y="760" width="70" height="30" as="geometry"/>
                </mxCell>
                <mxCell id="48" value="&lt;font color=&quot;#ffffff&quot; style=&quot;font-size: 12px&quot;&gt;Wilma&lt;/font&gt;" style="text;html=1;strokeColor=none;fillColor=none;align=right;verticalAlign=middle;whiteSpace=wrap;rounded=0;shadow=0;glass=0;labelBackgroundColor=none;sketch=0;fontSize=10;fontColor=none;" vertex="1" parent="1">
                    <mxGeometry x="720" y="800" width="70" height="30" as="geometry"/>
                </mxCell>
                <mxCell id="49" value="&lt;font color=&quot;#ffffff&quot; style=&quot;font-size: 12px&quot;&gt;Whitebeard&lt;/font&gt;" style="text;html=1;strokeColor=none;fillColor=none;align=right;verticalAlign=middle;whiteSpace=wrap;rounded=0;shadow=0;glass=0;labelBackgroundColor=none;sketch=0;fontSize=10;fontColor=none;" vertex="1" parent="1">
                    <mxGeometry x="720" y="840" width="70" height="30" as="geometry"/>
                </mxCell>
                <mxCell id="50" value="" style="shape=mxgraph.mockup.markup.redX;fillColor=#ff0000;html=1;shadow=0;strokeColor=none;rounded=1;glass=0;labelBackgroundColor=none;sketch=0;fontSize=12;fontColor=#FFFFFF;" vertex="1" parent="1">
                    <mxGeometry x="800" y="760" width="30" height="30" as="geometry"/>
                </mxCell>
                <mxCell id="52" value="" style="shape=mxgraph.mockup.markup.redX;fillColor=#ff0000;html=1;shadow=0;strokeColor=none;rounded=1;glass=0;labelBackgroundColor=none;sketch=0;fontSize=12;fontColor=#FFFFFF;" vertex="1" parent="1">
                    <mxGeometry x="120" y="620" width="30" height="30" as="geometry"/>
                </mxCell>
                <mxCell id="60" value="" style="rounded=1;whiteSpace=wrap;html=1;shadow=0;glass=0;labelBackgroundColor=#990000;sketch=0;fontSize=20;fontColor=#FFFFFF;strokeColor=#E6E6E6;fillColor=#990000;gradientColor=none;" vertex="1" parent="1">
                    <mxGeometry x="250" y="820" width="130" height="130" as="geometry"/>
                </mxCell>
                <mxCell id="61" value="" style="ellipse;whiteSpace=wrap;html=1;aspect=fixed;fillColor=#FFFFFF;fontColor=#ffffff;strokeColor=#6F0000;" vertex="1" parent="1">
                    <mxGeometry x="340" y="830" width="30" height="30" as="geometry"/>
                </mxCell>
                <mxCell id="62" value="" style="ellipse;whiteSpace=wrap;html=1;aspect=fixed;fillColor=#FFFFFF;fontColor=#ffffff;strokeColor=#6F0000;" vertex="1" parent="1">
                    <mxGeometry x="340" y="870" width="30" height="30" as="geometry"/>
                </mxCell>
                <mxCell id="63" value="" style="ellipse;whiteSpace=wrap;html=1;aspect=fixed;fillColor=#FFFFFF;fontColor=#ffffff;strokeColor=#6F0000;" vertex="1" parent="1">
                    <mxGeometry x="340" y="910" width="30" height="30" as="geometry"/>
                </mxCell>
                <mxCell id="64" value="&lt;font color=&quot;#ffffff&quot; style=&quot;font-size: 12px&quot;&gt;Wally&lt;/font&gt;" style="text;html=1;strokeColor=none;fillColor=none;align=right;verticalAlign=middle;whiteSpace=wrap;rounded=0;shadow=0;glass=0;labelBackgroundColor=none;sketch=0;fontSize=10;fontColor=none;" vertex="1" parent="1">
                    <mxGeometry x="260" y="830" width="70" height="30" as="geometry"/>
                </mxCell>
                <mxCell id="65" value="&lt;font color=&quot;#ffffff&quot; style=&quot;font-size: 12px&quot;&gt;Wilma&lt;/font&gt;" style="text;html=1;strokeColor=none;fillColor=none;align=right;verticalAlign=middle;whiteSpace=wrap;rounded=0;shadow=0;glass=0;labelBackgroundColor=none;sketch=0;fontSize=10;fontColor=none;" vertex="1" parent="1">
                    <mxGeometry x="260" y="870" width="70" height="30" as="geometry"/>
                </mxCell>
                <mxCell id="66" value="&lt;font color=&quot;#ffffff&quot; style=&quot;font-size: 12px&quot;&gt;Whitebeard&lt;/font&gt;" style="text;html=1;strokeColor=none;fillColor=none;align=right;verticalAlign=middle;whiteSpace=wrap;rounded=0;shadow=0;glass=0;labelBackgroundColor=none;sketch=0;fontSize=10;fontColor=none;" vertex="1" parent="1">
                    <mxGeometry x="260" y="910" width="70" height="30" as="geometry"/>
                </mxCell>
                <mxCell id="67" value="" style="shape=mxgraph.mockup.markup.redX;fillColor=#ff0000;html=1;shadow=0;strokeColor=none;rounded=1;glass=0;labelBackgroundColor=none;sketch=0;fontSize=12;fontColor=#FFFFFF;" vertex="1" parent="1">
                    <mxGeometry x="340" y="830" width="30" height="30" as="geometry"/>
                </mxCell>
                <mxCell id="68" value="[On click] -&amp;gt;" style="text;html=1;strokeColor=none;fillColor=none;align=center;verticalAlign=middle;whiteSpace=wrap;rounded=0;shadow=0;glass=0;labelBackgroundColor=#990000;sketch=0;fontSize=20;fontColor=#FFFFFF;" vertex="1" parent="1">
                    <mxGeometry x="30" y="870" width="140" height="30" as="geometry"/>
                </mxCell>
                <mxCell id="69" value="" style="shape=partialRectangle;whiteSpace=wrap;html=1;bottom=0;right=0;fillColor=none;rounded=1;shadow=0;glass=0;labelBackgroundColor=none;sketch=0;fontSize=12;fontColor=#FFFFFF;strokeColor=#990000;rotation=-180;strokeWidth=3;" vertex="1" parent="1">
                    <mxGeometry x="220" y="890" width="20" height="20" as="geometry"/>
                </mxCell>
                <mxCell id="70" value="" style="shape=partialRectangle;whiteSpace=wrap;html=1;bottom=0;right=0;fillColor=none;rounded=1;shadow=0;glass=0;labelBackgroundColor=none;sketch=0;fontSize=12;fontColor=#FFFFFF;strokeColor=#990000;rotation=90;strokeWidth=3;" vertex="1" parent="1">
                    <mxGeometry x="220" y="860" width="20" height="20" as="geometry"/>
                </mxCell>
                <mxCell id="71" value="" style="shape=partialRectangle;whiteSpace=wrap;html=1;bottom=0;right=0;fillColor=none;rounded=1;shadow=0;glass=0;labelBackgroundColor=none;sketch=0;fontSize=12;fontColor=#FFFFFF;strokeColor=#990000;rotation=-90;strokeWidth=3;" vertex="1" parent="1">
                    <mxGeometry x="190" y="890" width="20" height="20" as="geometry"/>
                </mxCell>
                <mxCell id="72" value="" style="shape=partialRectangle;whiteSpace=wrap;html=1;bottom=0;right=0;fillColor=none;rounded=1;shadow=0;glass=0;labelBackgroundColor=none;sketch=0;fontSize=12;fontColor=#FFFFFF;strokeColor=#990000;rotation=0;strokeWidth=3;" vertex="1" parent="1">
                    <mxGeometry x="190" y="860" width="20" height="20" as="geometry"/>
                </mxCell>
            </root>
        </mxGraphModel>
    </diagram>
</mxfile>